<?xml version="1.0" encoding="utf-8"?>
<!-- Generator: Adobe Illustrator 15.1.0, SVG Export Plug-In  -->
<!DOCTYPE svg PUBLIC "-//W3C//DTD SVG 1.1//EN" "http://www.w3.org/Graphics/SVG/1.1/DTD/svg11.dtd" [
	<!ENTITY ns_flows "http://ns.adobe.com/Flows/1.0/">
]>
<svg version="1.1"
	 xmlns="http://www.w3.org/2000/svg" xmlns:xlink="http://www.w3.org/1999/xlink" xmlns:a="http://ns.adobe.com/AdobeSVGViewerExtensions/3.0/"
	 x="0px" y="0px" width="377px" height="53px" viewBox="-1.278 -1.409 377 53"
	 overflow="visible" enable-background="new -1.278 -1.409 377 53" xml:space="preserve">
<defs>
</defs>
<path fill-rule="evenodd" clip-rule="evenodd" fill="#275C95" d="M235.703,0.058c6.34-0.439,12.295,1.656,15.523,5.429
	c0.984,1.149,2.289,3.043,1.715,5.047c-0.324,1.134-1.611,2.227-3.334,2.095c-1.33-0.102-2.246-0.976-2.951-2.095
	c-1.836-2.91-4.225-5.891-8.477-6.381c-4.193-0.483-6.766,0.903-8.857,2.476c-2.068,1.555-3.775,3.718-4.953,6.381
	c-3.893,8.809-1.439,20.829,3.334,26.667c1.754,2.145,3.625,3.748,6.572,4.762c4.906,1.688,10.07,0.212,13.523-1.905
	c0.766-0.469,2.703-2.085,3.904-1.333c1.758,1.1-0.404,3.708-1.523,4.667c-3.648,3.127-10.082,5.184-17.238,3.81
	c-11.393-2.188-17.855-12.345-17.523-26.19c0.211-8.816,3.912-15.819,9.238-19.714C227.424,1.747,231.188,0.371,235.703,0.058z"/>
<path fill-rule="evenodd" clip-rule="evenodd" fill="#275C95" d="M122.37,29.582c-1.154-0.274-2.939,0.082-4.095-0.19
	c-0.283-0.865-0.329-2.858,0-3.714c3.032-0.316,7.349-0.314,10.381,0c0.344,2.864,0.19,6.019,0.19,9.238
	c0,2.951,0.515,6.662-0.19,8.953c-0.475,1.543-2.281,2.89-3.619,3.714c-4.219,2.601-12.267,3.528-18.286,2.19
	c-11.476-2.55-18.035-11.904-17.429-26.286c0.188-4.444,1.403-8.41,3.048-11.524c3.264-6.181,8.81-11.018,17.524-11.619
	c7.388-0.509,13.553,1.882,17.047,5.905c1.147,1.321,2.421,3.253,1.905,5.143c-0.481,1.761-1.74,2.585-3.619,2.286
	c-1.406-0.224-2.246-1.608-2.952-2.667c-2.11-3.164-4.557-6.086-9.333-6.476c-5.845-0.478-10.022,2.436-12.476,5.81
	c-5.426,7.459-4.799,21.347,0.095,28.667c2.441,3.65,6.011,6.565,11.333,6.953c2.288,0.167,4.363-0.022,6.19-0.571
	c1.525-0.458,3.229-1.086,3.905-2.762c0.692-1.719,0.381-4.174,0.381-6.381C122.37,33.943,122.37,32.064,122.37,29.582z"/>
<path fill-rule="evenodd" clip-rule="evenodd" fill="#275C95" d="M22.656,37.867c2.603-5.965,5.082-12.083,7.619-18.19
	c2.536-6.105,4.71-12.381,7.619-18.19c1.893-0.306,4.965-0.313,6.857,0c0.514,3.786,0.286,7.781,0.286,11.81
	c0,7.966,0,16.126,0,24.19c0,3.995,0.228,7.958-0.286,11.714c-1.596,0.311-4.403,0.311-6,0c-0.379-12.16-0.191-25.396-0.095-37.714
	c-4.778,10.978-9.287,22.539-14,33.905c-0.491,1.184-1.22,4.212-2.476,4.286c-1.479,0.087-2.123-2.967-2.667-4.286
	c-4.616-11.187-9.49-22.832-14.191-33.905C5.196,23.93,5.575,36.925,5.132,49.2c-1.226,0.301-3.633,0.318-4.857,0
	c-0.348-13.701-0.19-28.018-0.19-42.381c0-2.057-0.504-5.349,0.952-5.523c1.263-0.152,4.734-0.369,5.81,0.19
	c0.734,0.382,1.678,3.184,2.19,4.381C13.516,16.328,18.373,27.902,22.656,37.867z"/>
<path fill-rule="evenodd" clip-rule="evenodd" fill="#275C95" d="M90.275,49.2c-1.861,0.373-4.744,0.193-6.762,0.096
	c-2.648-6.05-4.812-12.586-7.238-18.857c-1.418,0-3.336,0-5.333,0c-1.807,0-4.16,0.365-5.143-0.19
	c-0.949-0.536-0.992-2.118-1.143-3.238c1.219-0.656,3.139-0.381,4.857-0.381c1.781,0,3.622,0,5.238,0
	c-1.649-5.303-3.928-10.802-5.714-16.286c-4.254,11.291-8.533,22.862-12.667,34.286c-0.579,1.6-1.024,3.271-2,4.667
	c-1.448,0.109-3.752,0.264-5.048-0.096c0.195-2.174,1.318-4.091,2.095-6.095c4.968-12.812,10.084-25.818,15.143-38.952
	c0.459-1.191,0.599-2.614,1.714-2.857c0.803-0.175,2.822-0.192,3.524,0.19c0.523,0.285,1.095,1.901,1.428,2.762
	c5.091,13.13,9.993,25.863,15.048,38.857C89.035,45.059,90.122,47.025,90.275,49.2z"/>
<path fill-rule="evenodd" clip-rule="evenodd" fill="#275C95" d="M166.846,37.772c0.127-12-0.253-24.507,0.19-36.19
	c1.087-0.506,3.618-0.35,4.857-0.095c0.316,15.418,0.317,32.198,0,47.714c-1.096,0.155-2.788,0.479-4,0.096
	c-1.151-0.364-3.081-3.546-3.81-4.572c-7.996-11.266-16.451-23.09-24.476-33.905c0.096,12.541,0.284,25.999-0.095,38.381
	c-1.242,0.286-3.623,0.329-4.857,0c-0.51-1.707-0.286-3.809-0.286-5.809c0-12.084,0-24.089,0-36.572
	c0-1.645-0.357-5.157,0.571-5.428c0.692-0.203,4.356-0.349,5.333,0c1.024,0.365,2.736,3.5,3.429,4.476
	C151.162,16.375,159.641,27.631,166.846,37.772z"/>
<path fill-rule="evenodd" clip-rule="evenodd" fill="#275C95" d="M198.846,1.391c1.922,3.793,3.209,7.843,4.762,11.81
	c3.861,9.859,7.768,19.794,11.619,29.809c0.775,2.017,1.873,3.974,2.096,6.19c-1.793,0.367-4.623,0.201-6.57,0.096
	c-1.068-1.058-1.512-2.887-2.096-4.477c-1.719-4.679-3.654-9.58-5.334-14.381c-1.434,0-3.459,0-5.428,0
	c-1.908,0-4.047,0.309-5.049-0.286c-0.957-0.568-1.135-1.917-1.143-3.238c2.762-0.646,6.809-0.11,10.096-0.286
	c-1.82-5.481-3.902-10.702-5.715-16.19c-1.43,3.138-2.525,6.43-3.715,9.714c-3.48,9.621-7.135,19.568-10.856,29.143
	c-1.51,0.057-4.035,0.37-5.238-0.191c1.111-4.021,2.889-8.014,4.477-12.095c4.149-10.666,8.43-21.835,12.762-32.857
	c0.459-1.17,0.754-2.638,1.713-2.857C196.486,1.008,197.67,1.439,198.846,1.391z"/>
<path fill-rule="evenodd" clip-rule="evenodd" fill="#275C95" d="M296.084,49.2c-1.861,0.373-4.744,0.193-6.762,0.096
	c-2.66-6.039-4.807-12.589-7.238-18.857c-1.422,0-3.387,0-5.428,0c-1.824,0-4.205,0.359-5.143-0.286
	c-0.855-0.587-0.928-2.008-1.049-3.143c1.221-0.656,3.139-0.381,4.857-0.381c1.781,0,3.623,0,5.238,0
	c-1.672-5.249-3.869-10.798-5.715-16.19c-4.342,11.197-8.486,22.813-12.666,34.19c-0.576,1.568-1.012,3.28-2,4.667
	c-1.449,0.109-3.752,0.264-5.047-0.096c0.18-2.178,1.32-4.097,2.094-6.095c4.971-12.817,10.004-25.85,15.143-38.952
	c0.469-1.192,0.594-2.612,1.715-2.857c0.803-0.175,2.822-0.192,3.523,0.19c0.631,0.344,0.977,1.938,1.334,2.857
	c5.049,13.022,10.098,25.793,15.143,38.762C294.854,45.08,295.924,47.031,296.084,49.2z"/>
<path fill-rule="evenodd" clip-rule="evenodd" fill="#275C95" d="M362.752,1.582c0.322,1.346,0.275,2.955-0.096,3.905
	c-6.066,0.441-12.951,0.065-19.334,0.19c-0.223,5.27-0.031,10.952-0.096,16.381c2.715,0,5.654,0,8.477,0
	c2.859,0,5.734-0.221,8.191,0.286c0.318,1.013,0.293,3.002-0.096,3.905c-5.303,0.222-11.016,0.032-16.477,0.095
	c-0.223,6.032-0.031,12.476-0.096,18.667c3.012,0.005,6.449,0,9.811,0c3.391,0,6.809-0.226,9.715,0.286
	c0.273,0.939,0.381,3.108-0.096,3.904c-8.148,0.316-17.656,0.317-25.904,0c-0.348-13.632-0.191-28.222-0.191-42.476
	c0-2.239-0.527-5.228,1.143-5.428c2.021-0.243,4.246,0,6.381,0c4.145,0,8.453,0,12.668,0C358.797,1.296,360.879,1.078,362.752,1.582
	z"/>
<path fill-rule="evenodd" clip-rule="evenodd" fill="#275C95" d="M369.514,2.248c-0.402-0.351-1.441-1.042-1.619-0.095
	c-0.178,0.938,1.832,0.972,1.904,2c0.094,1.343-2.695,1.819-2.285,0.095c0.547,0.028,0.475,0.741,1.047,0.762
	c0.314,0.012,0.703-0.139,0.762-0.571c0.131-0.973-1.455-0.786-1.809-1.524C366.816,1.461,369.582,0.538,369.514,2.248z"/>
<path fill-rule="evenodd" clip-rule="evenodd" fill="#275C95" d="M300.941,1.391c8.791,0.18,17.732-0.857,23.238,2.381
	c1.754,1.032,3.465,2.61,4.381,4.476c2.342,4.773,0.783,10.77-2,13.81c-2.275,2.486-5.17,3.712-8.666,4.667
	c3.338,5.545,7.205,10.932,10.857,16.476c1.197,1.82,2.775,3.585,3.332,5.81c-1.648,0.828-4.781,0.171-7.047,0.381
	c-1.355-1.452-2.293-3.255-3.334-4.953c-2.057-3.355-4.246-6.767-6.381-10.19c-1.045-1.676-1.982-3.479-3.143-5.047
	c-0.832-1.124-2.686-1.832-2.572-3.333c0.135-1.761,2.301-1.173,3.715-1.333c4.955-0.563,9.162-3.585,9.619-8.762
	c0.822-9.328-6.316-11.729-15.523-10.19c-0.348,14.174,0.221,29.352-0.285,43.523c-1.457,0.504-4.49,0.367-6.096,0.095
	c-0.443-15.445-0.064-31.712-0.191-47.523C300.838,1.542,300.83,1.407,300.941,1.391z"/>
<path fill-rule="evenodd" clip-rule="evenodd" fill="#275C95" d="M370.846,1.391c0.662,0.734,0.941,1.854,1.334,2.857
	c0.891-0.666,0.523-2.588,1.809-2.857c0.1,1.06,0.277,3.001-0.094,3.905c-0.812-0.267-0.182-1.978-0.381-2.857
	c-0.492,0.874-0.799,1.931-1.238,2.857c-0.592-0.837-0.865-1.994-1.334-2.953c-0.344,0.736,0.215,2.374-0.285,2.953
	c-0.381-0.896-0.189-2.85-0.096-3.905C370.656,1.391,370.752,1.391,370.846,1.391z"/>
</svg>
