<?xml version="1.0" encoding="utf-8"?>
<!-- Generator: Adobe Illustrator 15.1.0, SVG Export Plug-In  -->
<!DOCTYPE svg PUBLIC "-//W3C//DTD SVG 1.1//EN" "http://www.w3.org/Graphics/SVG/1.1/DTD/svg11.dtd" [
	<!ENTITY ns_flows "http://ns.adobe.com/Flows/1.0/">
]>
<svg version="1.1"
	 xmlns="http://www.w3.org/2000/svg" xmlns:xlink="http://www.w3.org/1999/xlink" xmlns:a="http://ns.adobe.com/AdobeSVGViewerExtensions/3.0/"
	 x="0px" y="0px" width="190px" height="42px" viewBox="-0.584 -0.447 190 42"
	 overflow="visible" enable-background="new -0.584 -0.447 190 42" xml:space="preserve">
<defs>
</defs>
<path fill-rule="evenodd" clip-rule="evenodd" fill="#006BAC" d="M61.087,33.708c-3.828,4.27-7.949,7.654-13.101,7.654
	c-5.299,0-7.065-3.975-7.065-7.949c0-9.125,8.243-19.429,16.633-19.429c2.649,0,5.593,0.883,5.593,4.122
	c0,7.802-11.04,10.599-17.222,11.187c-0.294,1.473-0.441,2.945-0.441,4.416c0,2.943,2.061,4.416,4.71,4.416
	c3.386,0,6.771-2.207,10.156-5.299l4.122-3.975l5.593-22.521l-0.147,0.294c0.589-2.649-0.294-5.152-3.091-5.152h-1.766V0
	l11.628,0.147l-6.477,22.08v0.146c3.238-3.68,7.949-8.39,13.101-8.39c4.71,0,6.624,2.944,6.624,7.359
	c0,4.27-2.208,8.686-5.446,12.365c-1.767,1.914-3.68,3.68-5.888,5.006c-2.797,1.619-5.593,2.648-8.39,2.648
	c-3.827,0-6.918-2.061-6.918-6.33c0-1.324,0.294-2.795,0.736-4.268v-0.146L61.087,33.708L61.087,33.708z M77.72,36.504
	c1.766-1.914,3.532-4.416,4.857-6.918c1.619-3.238,2.649-6.625,2.649-9.126c0-2.208-0.736-4.122-3.386-4.122
	c-7.212,0-14.278,12.07-14.278,18.546c0,2.355,0.883,4.857,3.533,4.857C73.304,39.743,75.659,38.418,77.72,36.504L77.72,36.504z
	 M46.22,27.819c1.03-3.826,5.593-11.922,10.009-11.922c1.472,0,2.355,0.883,2.355,2.355C58.584,24.583,51.519,27.379,46.22,27.819
	L46.22,27.819z M13.542,0H0v1.472h0.736c2.355,0.147,3.238,0.736,3.68,2.208l8.832,37.682h1.472l10.745-18.4l4.857,18.4h1.619
	L50.341,5.299c1.178-2.208,1.914-3.68,3.975-3.827h0.441V0H43.57v1.472h0.736c2.944,0.147,3.533,0.442,3.533,1.619
	c0,1.178-0.442,2.208-0.883,3.238L33.561,34.002h-0.147l-4.417-17.37l6.624-11.187c1.325-2.208,2.061-3.974,4.858-3.974h0.883V0
	H30.617v1.472h0.589c1.914,0.147,2.649,0.294,2.649,1.472c0,0.441-0.294,1.325-0.736,2.355l-4.71,8.685h-0.147L25.759,3.385
	c-0.147-0.883,0.442-1.766,1.619-1.914h1.031V0H15.897v1.472h0.736c2.208,0.147,3.238,0.736,3.68,2.208l4.416,16.486L16.78,34.002
	L10.304,5.446C10.01,4.71,10.01,3.974,9.862,3.238c0-1.472,1.62-1.767,3.239-1.767h0.441V0L13.542,0z"/>
<path fill-rule="evenodd" clip-rule="evenodd" d="M174.281,22.079c0,10.451-8.243,16.34-19.725,16.191
	c-2.354,0-2.649-0.293-2.649-13.836V3.533c0-1.031,0.295-1.031,3.68-1.031C165.596,2.502,174.281,9.273,174.281,22.079
	L174.281,22.079z M143.664,40.774V10.893c0-8.391-0.294-8.685-2.649-8.685h-1.913V0h20.46c15.897,0,23.552,9.42,23.552,19.43
	c0,8.538-5.446,21.344-24.288,21.344H143.664L143.664,40.774z M99.799,0l15.014,29.145L128.502,0h7.802v29.881
	c0,8.537,0.441,8.684,2.649,8.684h1.619v2.209H123.94v-2.209h3.091c0.883,0,1.03-0.295,1.03-1.029V7.212h-0.147l-15.161,32.089
	c-0.147,0.295-0.294,1.031-0.883,1.031c-0.441,0-0.589-0.736-0.736-1.031L95.677,8.39h-0.146v16.927c0,3.533,0,8.096,0.441,11.188
	c0.441,1.914,0.884,2.061,2.797,2.061h2.797v2.209H88.465v-2.209h1.914c1.766,0,2.208,0,2.208-0.736V10.745
	c0-5.593-0.442-8.538-4.269-8.538h-1.914V0H99.799L99.799,0z"/>
<path fill-rule="evenodd" clip-rule="evenodd" d="M181.788,1.619c0-0.736-0.589-0.883-1.03-0.883c-0.294,0-0.883,0.147-0.883,0.736
	c0,0.294,0.147,0.442,0.441,0.442l1.178,0.294c0.589,0.147,0.883,0.442,0.883,1.178c0,0.883-0.883,1.178-1.619,1.178
	c-0.735,0-1.03-0.294-1.178-0.442c-0.294-0.294-0.441-0.588-0.441-1.03h0.589c0,0.736,0.589,1.03,1.03,1.03s1.178-0.147,1.178-0.736
	c0-0.441-0.295-0.589-0.883-0.736l-0.884-0.147c-0.294-0.147-0.883-0.294-0.883-1.03c0-0.588,0.441-1.177,1.472-1.177
	c1.325,0,1.472,0.883,1.619,1.325H181.788L181.788,1.619z"/>
<path fill-rule="evenodd" clip-rule="evenodd" d="M186.499,4.416V2.061c0-0.147,0-0.736,0-1.03l0,0l-1.178,3.385h-0.589l-1.03-3.385
	l0,0c0,0.294,0,0.883,0,1.03v2.355h-0.589V0.294h0.735l1.178,3.532l0,0l1.178-3.532h0.883v4.121H186.499L186.499,4.416z"/>
</svg>
