<?xml version="1.0" encoding="utf-8"?>
<!-- Generator: Adobe Illustrator 15.1.0, SVG Export Plug-In . SVG Version: 6.00 Build 0)  -->
<!DOCTYPE svg PUBLIC "-//W3C//DTD SVG 1.1//EN" "http://www.w3.org/Graphics/SVG/1.1/DTD/svg11.dtd">
<svg version="1.1" id="Layer_1" xmlns="http://www.w3.org/2000/svg" xmlns:xlink="http://www.w3.org/1999/xlink" x="0px" y="0px"
	 width="294.666px" height="157.274px" viewBox="255.669 173.583 294.666 157.274"
	 enable-background="new 255.669 173.583 294.666 157.274" xml:space="preserve">
<rect x="131.5" y="203.327" fill="#155EAB" width="548" height="410.188"/>
<rect x="131.5" y="486.954" fill="#A2A5A4" width="547" height="126.562"/>
<path fill="#BE8D62" d="M401.422,295.217c0.489-1.869-0.021-4.178-1.676-5.722c-1.926-1.802-13.004-2.599-13.428-3.94
	c-1.938-6.154-7.828-11.621-14.535-11.365c-2.795,0.107-8.656,2.436-10.119,4.691c-3.244,5.032,4.693,10.309,7.613,11.969
	c2.83,1.615,12.306-1.057,15.195,0.447c3.887,2.033,7.711,6.059,12.059,6.919C399.201,298.75,400.9,297.244,401.422,295.217z"/>
<path fill="#FFFFFF" d="M448.549,276.15c0,0,7.566,8.521,3.299,12.213c-7.396,6.402-19.589,14.072-31.154,16.467
	c-7.316,1.518-26.295-4.562-41.357-12.881c0.588-4.197,2.908-8.879,5.71-12.797c12.707,6.23,22.31,14.549,28.454,10.916
	c10.466-6.188,11.396-10.092,16.273-14.834C437.129,268.076,448.549,276.15,448.549,276.15z"/>
<path fill="#E8C99D" d="M376.537,288.924c-3.967,1.566,0.814,33.463,2.361,39.859c1.523,6.305,11.057,24.847,16.713,34.381
	c2.479-1.596,9.739,6.554,10.556,3.66c-4.849-7.188-17.851-37.487-19.13-41.69c-2.432-7.964-1.366-37.11-2.122-42.614
	C384.781,281.493,377.771,288.434,376.537,288.924z"/>
<path fill="#898C8B" d="M335.296,390.135l-10.155,96.264c0,0,2.162,2.154,4.223,0.096l10.812-94.404L335.296,390.135z"/>
<path fill="#898C8B" d="M394.057,390.135l10.164,96.27c0,0-2.27,2.146-4.329,0.088l-10.714-94.402L394.057,390.135z"/>
<rect x="328.791" y="384.635" fill="#898C8B" width="68.682" height="21.791"/>
<polygon fill="#0F0F0F" points="337.766,358.537 338.63,384.635 390.678,389.302 424.936,370.518 378.713,358.385 "/>
<path fill="#D23D22" d="M332.561,224.952c2.381-4.808,7.418-6.498,9.035-11.694c1.434-4.609,0.801-9.668-2.513-13.326
	c-3.468-3.828-10.283-4.955-15.256-4.689c-9.979,0.529-19.25,11.656-16.546,21.59c1.631,5.984,3.076,10.677,2.113,16.994
	c-1.414,9.271-8.527,18.873-17.66,10.803c-2.68,20.248,21.209,19.029,29.488,8.947c6.148-7.488,9.851-25.293,7.23-19.146
	C327.312,237.125,328.977,232.184,332.561,224.952z"/>
<path fill="#E17721" d="M309.761,211.005c0,0,2.181-7.21,6.626-10.511c5.1-3.789,11.437-2.045,11.437-2.045
	S317.583,199.688,309.761,211.005z"/>
<circle fill="#D23D22" cx="351.495" cy="229.895" r="30.271"/>
<path fill="#E8C99D" d="M366.207,259.848c-1.723,5.924,1.251,17.334,1.251,17.334l4.659,16.914l-20.652-19.223
	c0,0-1.268-10.352-2.333-17.619C348.229,251.082,367.27,256.189,366.207,259.848z"/>
<g>
	<g>
		<g>
			<defs>
				<path id="SVGID_1_" d="M366.207,259.848c-1.723,5.924,1.251,17.334,1.251,17.334l4.659,16.914l-20.652-19.223
					c0,0-1.268-10.352-2.333-17.619C348.229,251.082,367.27,256.189,366.207,259.848z"/>
			</defs>
			<clipPath id="SVGID_2_">
				<use xlink:href="#SVGID_1_"  overflow="visible"/>
			</clipPath>
			<path clip-path="url(#SVGID_2_)" fill="#C88D5D" d="M376.409,218.398c3.38,3.215,4.073,12.117,4.073,12.117
				c-0.145,3.611,6.615,7.135,6.311,12.967c-0.264,5.136-3.438,12.426-7.762,19.527c-4.403,7.232-12.838,5.426-17.982,4.434
				c-5.136-0.99-13.214-3.756-17.722-13.09c-3.396-7.035-6.209-19.604-2.763-27.457c4.719-10.748,3.752-7.774,8.559-12.984
				C353.566,209.098,367.387,209.811,376.409,218.398z"/>
		</g>
	</g>
</g>
<g>
	<path fill="#583919" d="M364.264,231.973c0.635-1.479,1.687-2.769,3.002-3.781c1.311-1.002,3-1.729,4.797-1.696
		c0.445,0.008,0.89,0.058,1.324,0.146c0.356,0.075,0.825,0.188,1.206,0.319c0.79,0.282,1.571,0.613,2.263,1.095
		c1.391,0.918,2.557,2.252,2.985,3.818c-1.116-1.137-2.385-1.928-3.704-2.5c-0.672-0.266-1.342-0.514-2.045-0.659
		c-0.365-0.08-0.654-0.146-1.062-0.206c-0.325-0.055-0.657-0.087-0.988-0.087c-1.326-0.021-2.675,0.38-3.975,1.037
		C366.77,230.121,365.521,230.991,364.264,231.973z"/>
</g>
<path fill="#E8C99D" d="M377.758,210.367c3.715,3.529,4.477,13.311,4.477,13.311c-0.154,3.973,7.268,7.84,6.935,14.248
	c-0.289,5.643-3.776,13.652-8.526,21.455c-4.84,7.946-14.486,6.148-20.029,4.598c-6.91-1.933-11.674-3.474-16.627-13.729
	c-3.73-7.729-9.396-21.916-5.605-30.545c5.186-11.809,4.122-8.542,9.404-14.27C352.663,200.146,367.846,200.93,377.758,210.367z"/>
<g>
	<path fill="#D23D22" d="M363.926,219.809c-1.326,0.735-2.535,1.53-3.662,2.397c-1.113,0.88-2.146,1.826-3.024,2.901
		c-0.905,1.053-1.651,2.229-2.308,3.483c-0.646,1.265-1.16,2.614-1.688,4.046c-0.202-1.513-0.046-3.072,0.414-4.558
		c0.447-1.493,1.23-2.894,2.232-4.104c1.023-1.195,2.256-2.207,3.635-2.922C360.895,220.336,362.393,219.844,363.926,219.809z"/>
</g>
<path fill="#0F0F0F" d="M377,232.012c0.561,1.59,2.215,2.455,3.689,1.938c1.468-0.519,2.217-2.236,1.652-3.82
	c-0.562-1.584-2.209-2.45-3.682-1.935C377.182,228.714,376.441,230.421,377,232.012z"/>
<path fill="#FFFFFF" d="M380.082,230.635c0.17,0.479,0.682,0.727,1.158,0.562c0.477-0.166,0.727-0.687,0.562-1.163
	c-0.168-0.472-0.688-0.726-1.163-0.558C380.164,229.641,379.916,230.161,380.082,230.635z"/>
<g>
	<path fill="#0F0F0F" d="M376.969,231.991c-0.32-0.685-0.451-1.487-0.354-2.282c0.086-0.803,0.484-1.604,1.09-2.189
		c0.613-0.58,1.387-0.926,2.16-1.066c0.771-0.146,1.562-0.124,2.293,0.117c-0.735,0.203-1.42,0.414-2.057,0.682
		c-0.629,0.275-1.216,0.598-1.66,1.042c-0.463,0.429-0.791,0.974-1.02,1.604C377.204,230.534,377.084,231.225,376.969,231.991z"/>
</g>
<path fill="#E8C99D" d="M377.568,239.275l-0.969-2.246c0.121-0.217,1.426-4.332,4.08-4.838c2.395-0.455,3.909-0.272,5.678,1.908
	l-0.73,2.639c-1.115-1.379-2.393-0.278-3.562-0.074C379.527,237.098,377.588,239.236,377.568,239.275z"/>
<g>
	<path fill="#A36D48" d="M380.122,224.891c-1.114,0.67-2.167,1.276-2.992,2.088c-0.413,0.397-0.751,0.852-0.991,1.367
		c-0.248,0.521-0.367,1.107-0.451,1.762c-0.287-0.588-0.383-1.299-0.219-1.98c0.146-0.688,0.545-1.307,1.03-1.792
		c0.499-0.478,1.08-0.837,1.698-1.078C378.811,225.016,379.461,224.867,380.122,224.891z"/>
</g>
<g>
	<path fill="#D23D22" d="M382.916,223.541c-1.18-1.211-2.105-2.275-3.18-3.116c-0.53-0.421-1.086-0.782-1.709-1.097
		c-0.625-0.326-1.321-0.564-2.131-0.869c1.489-0.875,3.562-0.542,4.934,0.587c0.697,0.55,1.234,1.259,1.6,2.024
		C382.781,221.842,383.004,222.675,382.916,223.541z"/>
</g>
<path fill="#0F0F0F" d="M366.855,235.773c0.306,2.133-1.045,4.086-3.027,4.381c-1.969,0.275-3.825-1.225-4.141-3.346
	c-0.295-2.127,1.06-4.084,3.031-4.369C364.699,232.156,366.552,233.646,366.855,235.773z"/>
<g>
	<path fill="#0F0F0F" d="M366.915,230.738c-0.892,0.047-1.708,0.229-2.46,0.494c-0.762,0.299-1.346,0.682-1.913,1.211
		c-1.114,1.048-1.908,2.477-2.794,4.037c-0.124-0.907,0.023-1.824,0.336-2.688c0.314-0.862,0.814-1.696,1.539-2.347
		c0.695-0.648,1.688-1.108,2.611-1.189C365.169,230.163,366.125,230.277,366.915,230.738z"/>
</g>
<path fill="#FFFFFF" d="M363.977,234.951c0.061,0.578,0.565,1.005,1.146,0.949c0.583-0.055,1.01-0.566,0.957-1.148
	c-0.061-0.577-0.573-1.008-1.155-0.949C364.35,233.855,363.92,234.373,363.977,234.951z"/>
<path fill="#E8C99D" d="M360.623,243.871l-1.32-2.018c0.124-0.205,1.342-4.056,4.498-4.59c2.85-0.482,4.812,0.471,7.094,2.407
	l-0.754,1.663c-1.439-1.227-2.896-0.188-4.291,0.031C362.825,241.832,360.645,243.832,360.623,243.871z"/>
<g>
	<path fill="#A36D48" d="M363.971,228.438c-0.76,0.476-1.484,0.953-2.166,1.471c-0.675,0.521-1.312,1.072-1.832,1.712
		c-0.531,0.625-0.932,1.339-1.16,2.122c-0.229,0.785-0.252,1.641-0.172,2.535c-0.438-0.78-0.646-1.73-0.52-2.674
		c0.113-0.946,0.562-1.838,1.156-2.56c0.606-0.717,1.346-1.293,2.146-1.726C362.223,228.884,363.077,228.562,363.971,228.438z"/>
</g>
<path fill="#71B332" d="M383.412,278.9c-2.602-5.906-17.307-8.742-17.307-8.742L364.73,286.4l-14.058-16.873
	c0,0-19.604,6.176-20.101,16.257c-0.211,4.272,7.225,73.216,7.225,73.216l41.654-0.354l7.486-56.658L383.412,278.9z"/>
<path fill="#E8C99D" d="M379.003,356.272c2.91,0.861,11.347,5.066,9.632,9.15c-1.727,4.113-17.181,3.392-21.656,1.157
	c-3.412-1.705-7.625-3.729-10.935-5.248c-8.267-3.793-19.545-7.575-25.558-14.421c-6.609-7.521-4.352-40.687-1.623-53.072
	c0.445-2.024,7.316,2.636,8.183,2.736c1.651,0.196,2.745,6.896,3.356,10.181c0.849,4.576-3.721,31.941-0.414,35.047
	c3.51,3.295,21.566,13.065,26.306,14.836c0.989,0.37,1.937-0.094,2.847-0.457c1.12-0.447,1.863-0.632,3.125-0.675
	C374.542,355.436,376.79,355.617,379.003,356.272z"/>
<g>
	<g>
		<path fill="none" stroke="#0F0F0F" stroke-width="2" stroke-linecap="round" stroke-linejoin="round" d="M363.835,355.525
			c0.007,0.014,0.015,0.026,0.021,0.042"/>
		
			<path fill="none" stroke="#0F0F0F" stroke-width="2" stroke-linecap="round" stroke-linejoin="round" stroke-dasharray="0.1039,2.0786" d="
			M363.717,357.616c-0.427,1.646-1.352,3.783-2.059,5.104"/>
		<path fill="none" stroke="#0F0F0F" stroke-width="2" stroke-linecap="round" stroke-linejoin="round" d="M361.128,363.617
			c-0.009,0.013-0.019,0.024-0.026,0.038"/>
	</g>
</g>
<g>
	<g>
		<path fill="none" stroke="#0F0F0F" stroke-width="2" stroke-linecap="round" stroke-linejoin="round" d="M361.738,354.502
			c0.007,0.014,0.014,0.028,0.021,0.042"/>
		
			<path fill="none" stroke="#0F0F0F" stroke-width="2" stroke-linecap="round" stroke-linejoin="round" stroke-dasharray="0.1039,2.0779" d="
			M361.618,356.592c-0.427,1.647-1.353,3.782-2.056,5.104"/>
		<path fill="none" stroke="#0F0F0F" stroke-width="2" stroke-linecap="round" stroke-linejoin="round" d="M359.033,362.593
			c-0.01,0.015-0.018,0.026-0.026,0.038"/>
	</g>
</g>
<path fill="#71B332" d="M345.271,286.523c1.295,0.972,1.211,9.277,1.432,10.879c0.432,3.133,3.824,10.312,1.133,13.009
	c-1.703,1.708-3.91,0.431-4.438-1.477c-0.838,3.766-5.657,2.963-6.104-0.632c-1.172,2.65-5.403,3.18-5.86-1.039
	c-2.125,3.263-6.613,1.397-5.744-2.621c-0.776,0.355-3.229,1.039-3.838,0.233c-2.188-2.903,8.01-19.956,10.672-24.214l6.207,0.949
	L345.271,286.523z"/>
<path fill="#71B332" d="M383.4,278.871c3.381,5.568,9.047,21.85,9.047,21.85s-9.188,9.197-18.945,5.704l-4.177-25.278l9.579-4.73
	C378.904,276.414,382.48,277.355,383.4,278.871z"/>
<path fill="#971023" d="M326.389,229.986c-0.252,7.291,1.385,11.799,1.396,12.918c-6.24-9.082-2.308-20.057-0.638-21.646
	C326.238,223.17,326.441,228.357,326.389,229.986z"/>
<path fill="#E8C99D" d="M344.504,239.143c0,0-7.641-9.347-10.092-2.592c-4.123,11.363,10.539,13.913,10.539,13.913L344.504,239.143z
	"/>
<path fill="#E9A568" d="M342.084,242.094c0,0-5.137-6.281-5.725-2.18c-0.631,4.429,4.119,5.734,5.969,5.088
	c0,0-4.91-0.943-4.213-3.555C338.359,240.534,339.743,240.848,342.084,242.094z"/>
<path fill="#D23D22" d="M382.534,225.195c1.989-1.48,4.137-8.596,4.42-10.887c0.657-5.332-0.597-10.824-4.978-14.557
	c-5.348-4.553-12.963-5.818-19.463-6.195c-10.865-0.635-21.757,3.51-26.852,13.748c-0.477,0.951-0.887,1.94-1.229,2.959
	c-2.43,7.213-0.629,14.854,2.211,21.791c0.299,0.729,1.24,2.117,1.24,2.117c3.014,0.258,6.457,5.58,6.457,5.58
	c-3.129-5.211-1.213-10.268,3.443-15.66c0.602-0.695-2.018-7.238-2.018-7.238s4.907,4.324,5.428,3.904
	c0.884-0.712,1.764-1.309,2.617-1.765c2.847-1.517,5.5-2.854,8.114-3.853c0.363-0.137,0.105-3.068,0.105-3.068
	s1.776,2.406,2.178,2.287c2.342-0.703,4.683-1.094,7.133-1.045c0.441,0.012,0.702-6.137,0.702-6.137s1.729,6.318,2.287,6.41
	c1.936,0.314,3.952,0.902,6.105,1.822C382.162,219.184,382.021,224.68,382.534,225.195z"/>
<path fill="#E17721" d="M385.301,211.005c0,0-1.086-5.067-4.121-8.003c-8.104-7.838-19.885-6.932-21.359-7.354
	C378.939,201.115,382.248,207.484,385.301,211.005z"/>
<g>
	<path fill="#E9A568" d="M372.534,231.975c0.971,1.28,2.188,2.287,3.345,3.367c1.176,1.078,2.38,2.072,3.471,3.391
		c0.066,0.093,0.133,0.18,0.196,0.279l0.048,0.074l0.055,0.1l0.068,0.131c0.049,0.097,0.106,0.257,0.15,0.384
		c0.027,0.124,0.062,0.249,0.078,0.374c0.066,0.502-0.008,0.99-0.166,1.424c-0.317,0.866-0.862,1.564-1.502,2.128
		c-0.637,0.565-1.385,1.002-2.201,1.239c-0.803,0.229-1.762,0.213-2.41-0.307c0.766,0.287,1.55,0.119,2.221-0.207
		c0.678-0.324,1.272-0.811,1.778-1.353c0.981-1.071,1.687-2.626,0.786-3.569c-0.454-0.568-1.016-1.142-1.569-1.701
		c-0.542-0.58-1.112-1.143-1.643-1.748C374.175,234.789,373.117,233.495,372.534,231.975z"/>
</g>
<path fill="#FFFFFF" d="M380.989,248.814c0,0-0.657,4.355-3.657,6.98c-0.861,0.755-6.664,1.604-8.591,0.537
	c-1.929-1.07-3.532-3.787-3.532-3.787l6.512,0.5l5.227-2.167L380.989,248.814z"/>
<g>
	<path fill="#E9A568" d="M384.502,247.118c-0.301-0.415-0.463-0.819-0.635-0.992c-0.071-0.078-0.096-0.112-0.264-0.146
		c-0.156-0.019-0.388-0.01-0.648,0c0.096-0.244,0.255-0.459,0.529-0.573c0.26-0.142,0.72-0.052,0.937,0.213
		C384.818,246.137,384.768,246.671,384.502,247.118z"/>
</g>
<g>
	<path fill="#E9A568" d="M360.734,253.872c-0.248-0.271-0.354-0.674-0.295-1.058c0.045-0.393,0.25-0.748,0.502-1.028
		c0.531-0.544,1.235-0.815,1.957-0.771c-0.516,0.51-1.022,0.857-1.409,1.28c-0.197,0.205-0.356,0.427-0.488,0.675
		C360.881,253.225,360.768,253.514,360.734,253.872z"/>
</g>
<g>
	<path fill="#E9A568" d="M362.305,252.25c1.891-0.139,3.744-0.238,5.579-0.407c1.832-0.159,3.648-0.364,5.384-0.743
		c1.727-0.365,3.369-0.99,5-1.716c1.629-0.739,3.203-1.63,4.832-2.646c-0.908,1.722-2.375,3.076-3.994,4.158
		c-1.633,1.076-3.521,1.789-5.463,2.121c-1.929,0.328-3.852,0.359-5.748,0.232C365.999,253.096,364.121,252.811,362.305,252.25z"/>
</g>
<g>
	<path fill="#E9A568" d="M365.316,252.871c1.44,1.132,2.953,2.048,4.519,2.605c1.571,0.549,3.177,0.646,4.709,0.248
		c1.478-0.379,2.815-1.3,3.901-2.567c1.086-1.272,1.976-2.802,2.766-4.458c0.025,1.852-0.488,3.72-1.493,5.377
		c-0.991,1.65-2.651,3.098-4.692,3.587c-1.959,0.517-4.129,0.173-5.823-0.777C367.496,255.941,366.134,254.532,365.316,252.871z"/>
</g>
<path fill="#0F0F0F" d="M424.936,370.518l-1.399,97.46c0,0,7.771,1.451,12.343,4.249c4.574,2.8,6.312,6.021,6.312,6.021
	l-26.44,2.714l-10.854-109.825L424.936,370.518z"/>
<path fill="#0F0F0F" d="M407.742,369.922l-4.943,101.507c0,0,7.832,2.33,12.275,5.72c4.447,3.387,5.906,6.91,5.906,6.91h-25.389
	l-9.568-114.794L407.742,369.922z"/>
<g>
	<path fill="#E9A568" d="M371.375,261.169c0.859-0.825,1.896-1.397,2.999-1.813c0.558-0.192,1.134-0.354,1.739-0.399
		c0.59-0.056,1.252,0,1.758,0.339c-0.592-0.053-1.122,0.102-1.657,0.237c-0.53,0.153-1.06,0.333-1.584,0.526
		C373.568,260.436,372.52,260.861,371.375,261.169z"/>
</g>
<circle fill="#0F0F0F" cx="342.287" cy="247.548" r="1.15"/>
<circle fill="#E9A568" cx="358.148" cy="242.521" r="0.875"/>
<circle fill="#E9A568" cx="368.396" cy="240.966" r="0.875"/>
<circle fill="#E9A568" cx="365.887" cy="245.861" r="0.875"/>
<circle fill="#E9A568" cx="381.212" cy="235.271" r="0.623"/>
<circle fill="#E9A568" cx="371.172" cy="236.479" r="0.623"/>
<circle fill="#E9A568" cx="364.137" cy="241.646" r="0.623"/>
<circle fill="#E9A568" cx="384.837" cy="234.851" r="0.622"/>
<circle fill="#E9A568" cx="386.939" cy="237.899" r="0.622"/>
<polygon fill="#F1B900" points="365.629,290.961 348.865,270.163 350.675,269.527 364.73,286.4 366.105,270.158 367.434,270.448 "/>
<polygon fill="#F1B900" points="366.154,293.339 371.303,300.802 380.08,301.486 374.904,307.888 377.814,316.27 369.469,312.761 
	362.49,317.255 362.506,308.686 355.282,303.082 363.641,301.295 "/>
<path fill="#0F0F0F" d="M484.217,249.855c-0.316,3.771-0.846,7.516-1.431,11.158c-0.609,3.799-1.155,7.479-1.292,11.314
	c-0.125,3.514,0.846,7.199,0.451,10.629c-0.828,7.201-11.578,1.014-15.061,0.076c-5.445-1.467-10.893-2.941-16.33-4.438
	c-5.299-1.459-7.111,0.152-9.686-1.043c-3.201-1.49,0.299-11.176,0.086-14.632c-0.381-6.136-1.916-7.485,0.205-13.192
	c1.084-2.9,2.44-5.668,3.646-8.516c0.856-2.033,0.728-3.854,1.14-5.947c1.67-8.455,8.758-18.99,17.33-21.6
	c1.844-0.562,3.795-0.748,5.707-0.451c7.865,1.223,12.158,9.361,13.976,16.335C484.674,236.146,484.79,243.049,484.217,249.855z"/>
<path fill="#0F0F0F" d="M434.697,209.922c-1.641,3.127-1.812,8.586-1.014,11.74c3.051,12.049,5.803,15.02,9.705,24.762
	c2.092,5.217,3.412,11.01,3.426,16.65c0.016,8.189-4.666,14.189-12.212,16.721c-3.063,1.027-4.425,0.865-3.601-2.438
	c1.176-4.698,2.814-9.25,3.562-14.094c0.665-4.324,1.334-10.162-0.744-14.168c-2.92-5.623-7.773-9.473-11.131-14.554
	c-2.949-4.466-7.585-9.633-8.318-15.096c-1.049-7.813,1.07-15.354,5.332-21.917c4.489-6.917,15.936-18.205,24.854-17.631
	c2.414,0.158,7.598,1.479,7.121,4.365c-1.225,7.567-3.396,16.221-10.516,20.321c-1.538,0.89-3.412,1.464-4.665,2.778
	C435.787,208.111,435.194,208.977,434.697,209.922z"/>
<path fill="none" stroke="#BCBFBE" stroke-width="2.7081" stroke-linecap="round" stroke-linejoin="round" stroke-miterlimit="10" d="
	M446.988,271.084c0,0-16.439-8.244-15.875-25.084"/>
<path fill="#BE8D62" d="M442.127,251.334c3.404,5.705,2.855,18.541,2.855,18.541l16.168-1.188l0.662-5.846
	c0,0-1.23-11.671-2.104-19.533C458.973,236.637,440.025,247.812,442.127,251.334z"/>
<g>
	<g>
		<g>
			<defs>
				<path id="SVGID_3_" d="M442.141,251.332c3.406,5.703,2.836,18.457,2.836,18.457l14.104-4.688l2.703-2.312
					c0,0,0.585-14.213-0.282-22.073C460.76,234.043,440.041,247.811,442.141,251.332z"/>
			</defs>
			<clipPath id="SVGID_4_">
				<use xlink:href="#SVGID_3_"  overflow="visible"/>
			</clipPath>
			<path clip-path="url(#SVGID_4_)" fill="#A36D48" d="M417.301,211.379c0,0,0.398,5.793,1.203,10.248
				c0.807,4.457-2.425,15.064-0.309,20.484c2.113,5.422,10.511,13.832,20.652,18.064c9.003,3.758,12.814,1.408,17.577-1.701
				c5.369-3.512,19.769-10.427,22.222-26.035c2.449-15.609-0.938-40.904-23.596-43.02
				C432.395,187.309,420.279,198.95,417.301,211.379z"/>
		</g>
	</g>
</g>
<path fill="#BE8D62" d="M417.965,218.372c0,0,4.908,9.913,3.336,18.165c-1.576,8.254,9.131,15.533,13.09,17.872
	c3.955,2.341,9.084,8.062,17.284,3.011s20.698-19.781,21.317-25.458c0.607-5.68-3.146-27.301-13.691-32.661
	c-10.545-5.363-18.312-1.611-27.408,2.389C422.791,205.686,414.814,210.182,417.965,218.372z"/>
<g>
	<path fill="#0F0F0F" d="M442.359,214.139c1.045-1.182,2.419-2.058,3.956-2.595c1.527-0.542,3.317-0.664,4.984-0.103
		c0.411,0.146,0.807,0.334,1.185,0.55c0.309,0.178,0.713,0.42,1.026,0.659c0.648,0.506,1.274,1.054,1.771,1.713
		c1.011,1.283,1.687,2.881,1.604,4.471c-0.689-1.4-1.628-2.525-2.682-3.464c-0.542-0.453-1.09-0.89-1.699-1.241
		c-0.312-0.188-0.561-0.343-0.921-0.527c-0.289-0.148-0.59-0.275-0.899-0.377c-1.224-0.447-2.605-0.457-4.016-0.259
		C445.261,213.188,443.831,213.611,442.359,214.139z"/>
</g>
<g>
	<path fill="#0F0F0F" d="M418.877,223.297c-0.173-0.984-0.001-1.979,0.386-2.919c0.399-0.926,1.104-1.832,2.132-2.356
		c0.253-0.137,0.525-0.229,0.8-0.312c0.156-0.043,0.225-0.053,0.365-0.083c0.137-0.025,0.271-0.052,0.397-0.066
		c0.517-0.062,1.046-0.062,1.561,0.031c1.021,0.182,2.019,0.686,2.562,1.549c-0.972-0.173-1.815-0.16-2.617-0.052
		c-0.397,0.06-0.788,0.132-1.17,0.242l-0.272,0.076l-0.296,0.094c-0.161,0.056-0.319,0.119-0.474,0.199
		c-0.615,0.304-1.188,0.809-1.731,1.44C419.962,221.768,419.457,222.5,418.877,223.297z"/>
</g>
<path fill="#0F0F0F" d="M438.139,381.837l10.934,92.826c0,0-7.582,2.235-11.848,5.485s-5.664,6.632-5.664,6.632h26.58V380.405
	L438.139,381.837z"/>
<path fill="#0F0F0F" d="M454.514,381.121l4.742,93.542c0,0-7.515,2.235-11.777,5.485c-4.266,3.25-5.664,6.632-5.664,6.632h24.354
	l9.182-106.29L454.514,381.121z"/>
<path fill="#CE262A" d="M444.973,265.791c0,0,5.035,4.041,17.652-0.25c3.256-1.107,8.955,2.281,8.955,2.281l1.84,11.023
	l3.789,10.014l-15.996,30.047l-16.271-30.5l-8.805-11.613L444.973,265.791z"/>
<path fill="#FFFFFF" d="M438.633,385.704h36.158l11.83-81.468c0,0,2.152-17.723,1.938-22.781
	c-0.508-11.934-25.755-17.307-25.755-17.307l-11.785,42.027l-6.047-40.387c0,0-16.695,7.668-19.311,14.689
	C423.56,286.129,438.633,385.704,438.633,385.704z"/>
<circle fill="#0F0F0F" cx="446.776" cy="336.559" r="2.429"/>
<circle fill="#0F0F0F" cx="446.776" cy="325.551" r="2.429"/>
<path opacity="0.5" fill="#B27D56" enable-background="new    " d="M429.434,234.998c0.77,1.682-0.248,3.795-2.275,4.713
	c-2.021,0.912-4.279,0.289-5.043-1.398c-0.767-1.686,0.254-3.795,2.273-4.703C426.414,232.688,428.672,233.309,429.434,234.998z"/>
<path fill="#0F0F0F" d="M428.223,229.225c-0.342,1.283-1.582,2.08-2.791,1.771c-1.182-0.312-1.887-1.618-1.547-2.903
	c0.338-1.284,1.58-2.077,2.775-1.768C427.859,226.634,428.553,227.936,428.223,229.225z"/>
<path fill="#FFFFFF" d="M425.479,228.842c-0.104,0.385-0.49,0.617-0.878,0.514c-0.38-0.102-0.612-0.484-0.518-0.875
	c0.101-0.385,0.491-0.619,0.88-0.518C425.35,228.059,425.578,228.453,425.479,228.842z"/>
<path fill="none" stroke="#BE8D62" stroke-width="1.9924" stroke-miterlimit="10" d="M430.195,232.064c0,0-3.32-3.205-7.025-0.269"
	/>
<g>
	<path fill="#A36D48" d="M424.299,223.965c0.651-0.115,1.315-0.062,1.958,0.09c0.646,0.151,1.271,0.426,1.833,0.827
		c0.548,0.412,1.032,0.966,1.273,1.627c0.258,0.651,0.265,1.37,0.062,1.993c-0.177-0.636-0.378-1.202-0.693-1.68
		c-0.312-0.479-0.711-0.879-1.179-1.215C426.624,224.922,425.497,224.471,424.299,223.965z"/>
</g>
<g>
	<path fill="#0F0F0F" d="M423.549,225.657c0.536-0.203,1.112-0.249,1.686-0.195c0.571,0.052,1.146,0.233,1.668,0.556
		c0.508,0.336,0.942,0.84,1.126,1.428c0.194,0.582,0.166,1.193-0.031,1.726c-0.164-0.546-0.329-1.038-0.585-1.444
		c-0.255-0.404-0.584-0.729-0.981-0.979C425.629,226.227,424.627,225.966,423.549,225.657z"/>
</g>
<path fill="#0F0F0F" d="M462.557,193.971c-0.07-0.01-0.146-0.018-0.213-0.029c-1.201,4.369-5.49,9.621-16.438,13.379
	c-6.06,2.08-13.517,3.504-19.591,5.951c-3.344,1.35-5.891,5.609-7.094,10.025c-1.092,4.006-1.079,8.139,0.451,10.332
	c0.493,0.705,1.088,1.253,1.83,1.521c-0.271,1.584-0.4,3.09-0.262,4.695c-4.104,1.104-8.615-9.076-9.133-13.562
	c-1.074-9.289-1.827-30.479,15.012-41.254c10.352-6.619,25.41-11.084,36.907-4.748c1.509,0.834,4.841,3.133,6.013,4.398
	C476.898,192.073,468.4,194.697,462.557,193.971z"/>
<path fill="#0F0F0F" d="M443.631,224.953c-0.268,1.639,0.739,3.177,2.271,3.43c1.511,0.244,2.97-0.88,3.239-2.511
	c0.27-1.634-0.74-3.168-2.258-3.423C445.357,222.195,443.909,223.322,443.631,224.953z"/>
<path fill="none" stroke="#BE8D62" stroke-width="1.9924" stroke-miterlimit="10" d="M452.146,229.6c0,0-5.102-2.904-10.435-0.41"/>
<path fill="#FFFFFF" d="M443.986,225.625c-0.082,0.491,0.24,0.957,0.734,1.035c0.486,0.078,0.955-0.244,1.038-0.738
	c0.081-0.484-0.251-0.947-0.743-1.029C444.534,224.812,444.07,225.141,443.986,225.625z"/>
<g>
	<path fill="#0F0F0F" d="M449.182,225.369c-0.634-1.271-1.509-2.249-2.604-2.926c-1.093-0.69-2.381-1.03-3.76-1.396
		c1.385-0.325,2.934-0.126,4.217,0.66c0.628,0.401,1.186,0.938,1.562,1.579C448.978,223.92,449.217,224.646,449.182,225.369z"/>
</g>
<g>
	<path fill="#A36D48" d="M444.191,218.918c0.9-0.023,1.799,0.154,2.655,0.451c0.861,0.295,1.685,0.742,2.4,1.35
		c0.706,0.613,1.294,1.418,1.562,2.334c0.28,0.91,0.233,1.881-0.071,2.723c-0.067-0.896-0.231-1.733-0.585-2.473
		c-0.355-0.734-0.866-1.373-1.494-1.902c-0.616-0.543-1.337-0.982-2.088-1.387C445.812,219.616,445.02,219.262,444.191,218.918z"/>
</g>
<path opacity="0.5" fill="#B27D56" enable-background="new    " d="M454.723,233.438c0.18,2.346-2.469,4.463-5.914,4.727
	c-3.444,0.271-6.387-1.418-6.563-3.766c-0.185-2.352,2.464-4.465,5.907-4.723C451.602,229.407,454.537,231.096,454.723,233.438z"/>
<polyline fill="#616463" points="381.322,308.454 375,299.939 376.82,298.641 382.523,307.73 381.42,308.486 "/>
<path fill="#BCBFBE" d="M376.832,289.594c-2.801-2.002-6.701-1.354-8.697,1.457c-2.004,2.803-1.346,6.699,1.461,8.701
	c2.801,2,6.699,1.344,8.7-1.461C380.295,295.482,379.639,291.591,376.832,289.594z"/>
<path fill="#898C8B" d="M375.35,291.537c-1.717-1.229-4.096-0.826-5.324,0.891c-1.223,1.721-0.822,4.102,0.895,5.326
	c1.715,1.225,4.104,0.824,5.326-0.893C377.471,295.141,377.068,292.76,375.35,291.537z"/>
<path fill="#A35548" d="M433.66,248.182l1.311,1.061l2.684,1.994l1.727,0.84c0,0,2.234-1.959,2.254-1.803
	c0.018,0.158,0.172-1.446,0.172-1.446l-4.218-2.112l-4.021,1.029L433.66,248.182z"/>
<path fill="#FFFFFF" d="M435.559,247.555c0,0,1.359,1.828,1.795,1.867c0.807,0.064,3.411-0.365,3.411-0.365
	c-1.354,0.664-3.173,0.857-3.173,0.857s1.392,2.314,2.533,2.273c1.146-0.039,5.903-1.33,7.102-3.178
	c1.197-1.853,3.119-5.404,3.119-5.404l-6.125,2.062l-6.053,1.309L435.559,247.555z"/>
<g>
	<path fill="#D05E5B" d="M430.843,246.811c0.491-0.201,1.109-0.101,1.595,0.035c0.505,0.125,0.937,0.233,1.285,0.178
		c0.227-0.031,0.752-0.196,1.188-0.356l1.378-0.502c0.943-0.335,1.829-0.683,2.862-0.979c1.122-0.271,2.094-0.352,3.102-0.447
		l2.933-0.23c0.475-0.044,0.945-0.104,1.357-0.191c0.223-0.047,0.355-0.069,0.542-0.153c0.208-0.095,0.382-0.183,0.6-0.306
		l2.542-1.506c0.426-0.252,0.989-0.522,1.528-0.562c0.274-0.027,0.557-0.023,0.826,0.055c0.268,0.074,0.516,0.26,0.617,0.493
		c-0.407-0.334-0.903-0.19-1.307-0.017c-0.43,0.203-0.731,0.453-1.092,0.812c-0.728,0.669-1.438,1.378-2.271,2.005
		c-0.196,0.152-0.443,0.327-0.675,0.473c-0.244,0.16-0.586,0.303-0.84,0.39c-0.545,0.176-1.057,0.276-1.564,0.374
		c-1.017,0.193-2.012,0.307-2.992,0.416c-0.966,0.111-1.981,0.207-2.796,0.381l-2.845,0.74c-0.485,0.127-0.979,0.238-1.483,0.33
		c-0.253,0.047-0.508,0.093-0.778,0.13c-0.258,0.024-0.584,0.103-0.959,0.005c-0.646-0.148-1.127-0.492-1.508-0.807
		C431.69,247.259,431.358,246.947,430.843,246.811z"/>
</g>
<g>
	<path fill="#D05E5B" d="M450.795,242.979c-0.401,1.951-1.217,3.799-2.316,5.492c-0.545,0.857-1.189,1.644-1.943,2.391
		c-0.758,0.736-1.697,1.378-2.755,1.766c-0.526,0.189-1.069,0.312-1.573,0.4c-0.475,0.072-1.014,0.173-1.618,0.156
		c-1.151-0.022-2.322-0.414-3.19-1.053c-1.78-1.258-2.753-2.867-4.272-4.145c1.953,0.525,3.531,2.008,5.092,2.744
		c0.792,0.356,1.55,0.56,2.345,0.484c0.369-0.021,0.789-0.101,1.269-0.203c0.45-0.09,0.854-0.193,1.24-0.337
		c1.53-0.542,2.876-1.801,4.141-3.182C448.462,246.102,449.622,244.574,450.795,242.979z"/>
</g>
<g>
	<path fill="#A36D48" d="M436.799,245.125c0.315-0.372,0.689-0.547,1.077-0.674c0.394-0.107,0.803-0.166,1.271-0.025
		c-0.315,0.373-0.688,0.549-1.077,0.674C437.675,245.206,437.266,245.264,436.799,245.125z"/>
</g>
<g>
	<path fill="#A36D48" d="M430.434,247.777c-0.419-0.281-0.702-0.729-0.599-1.351c0.064-0.323,0.41-0.608,0.699-0.61
		c0.287-0.032,0.525,0.072,0.728,0.229c-0.231,0.102-0.44,0.191-0.581,0.278c-0.139,0.103-0.161,0.157-0.188,0.271
		C430.419,246.848,430.479,247.281,430.434,247.777z"/>
</g>
<g>
	<path fill="#A36D48" d="M454.73,242.221c-0.768-1.186-1.875-1.164-3.255-1.503c0.618-0.349,1.361-0.434,2.077-0.204
		c0.352,0.127,0.692,0.34,0.917,0.655C454.704,241.473,454.808,241.869,454.73,242.221z"/>
</g>
<path fill="none" stroke="#0F0F0F" stroke-width="3.6109" stroke-linecap="round" stroke-linejoin="round" stroke-miterlimit="10" d="
	M447.365,270.82c0,0-12.248,59.746-60.004,32.742"/>
<path fill="#DADDDC" d="M488.574,283.447l-0.225,3.541c-6.883,6.945-42.533,37.092-53.889,40.363
	c-0.77,0.223-2.978,1.108-4.009,1.185c0,0-1.994-14.793-1.994-15.12c0,0,39.208-23.334,43.706-28.436L488.574,283.447z"/>
<path fill="#BE8D62" d="M390.859,299.623c0.871,0.906,2.316,4.891,3.289,5.316c3.932,1.721,12.76,2.295,14.854,6.695
	c1.885,3.963-3.52,5.347-6.619,5.086c-5.09-0.424-9.5-3.852-14.732-4.234c-4.436-0.325-13.021-3.426-15.434-7.539
	c-1.781-3.033-0.494-6.944,2.102-9.482c3.166-3.098,8.295-1.062,10.979,0.348C387.34,296.889,389.275,297.982,390.859,299.623z"/>
<line fill="none" stroke="#0F0F0F" stroke-width="2" stroke-miterlimit="10" x1="452.619" y1="221.275" x2="467.982" y2="218.628"/>
<path fill="#FFFFFF" d="M484.711,275.162l3.84,8.342c-6.883,6.945-44.174,36.971-55.525,40.244
	c-7.178,2.069-26.561-2.541-42.219-9.687c0.264-4.229,2.219-9.073,4.715-13.196c13.146,5.244,25.65,9.942,31.16,6.752
	c10.695-6.198,37.275-30.303,41.773-35.404L484.711,275.162z"/>
<path fill="#0F0F0F" d="M469.807,223.044c2.483,9.192-5.664,17.585-8.01,25.847c-2.236,7.883-0.896,16.625-2.234,24.855
	c-0.529,3.268-2.691,8.953-4.858,11.453c5.431-4.145,21.864-16.28,24.649-20.461c11.261-16.883,15.951-44.244,5.327-62.65
	c-4.499-7.791-9.028-14.326-18.541-15.793c-2.792-0.431-8.647-0.188-9.232,3.182c-1.503,8.688-3.081,19.496,3.997,25.978
	c2.787,2.542,6.859,3.161,7.502,4.218C469.023,220.698,469.481,221.838,469.807,223.044z"/>
<path fill="#BE8D62" d="M465.627,221.385c0,0,6.711-12.072,9.863-5.648c5.723,11.654-8.207,18.498-8.207,18.498L465.627,221.385z"/>
<path fill="#A36D48" d="M467.814,224.439c0,0,3.551-9.311,5.822-4.758c2.451,4.91-2.572,8.273-4.979,8.232
	c0,0,5.354-3.004,3.523-5.771C471.553,221.176,470.062,222.08,467.814,224.439z"/>
<path fill="#242525" d="M442.926,183.716c0,0-5.039-0.649-8.734,1.196c-9.893,4.931-12.899,16.109-13.771,17.334
	C431.715,186.361,438.68,185.387,442.926,183.716z"/>
<path fill="#242525" d="M459.92,204.65c0,0,1.441-6.322,4.232-9.615c3.848-4.537,7.316-4.041,7.316-4.041s-5.211,4.27-7.223,6.561
	C462.408,199.648,459.92,204.65,459.92,204.65z"/>
<path fill="#242525" d="M475.645,260.051c0,0,6.412-7.592,8.293-14.667c2.09-7.817,0.803-13.384,0.803-13.384
	s-2.607,10.523-3.787,14.148C479.857,249.539,475.645,260.051,475.645,260.051z"/>
<path fill="none" stroke="#BCBFBE" stroke-width="3.6109" stroke-linecap="round" stroke-linejoin="round" stroke-miterlimit="10" d="
	M471.248,224.48c0,0,2.508,41.311-23.883,46.34"/>
<path fill="none" stroke="#0F0F0F" stroke-width="3.6109" stroke-linecap="round" stroke-linejoin="round" stroke-miterlimit="10" d="
	M447.365,270.82c0,0,3.938-0.693,7.221-2.618"/>
<path fill="none" stroke="#0F0F0F" stroke-width="2.7081" stroke-linecap="round" stroke-linejoin="round" stroke-miterlimit="10" d="
	M441.967,267.822c1.869,1.557,4.375,3.16,5.479,3.457"/>
<path fill="#0F0F0F" d="M472.205,225.926c2.764-1.945-1.674-5.107-2.705-2.229C468.824,225.582,470.541,227.096,472.205,225.926z"/>
<path fill="#BE8D62" d="M389.909,297.381c0.866,1.543,3.378,4.803,0.101,5.012c-2.729,0.176-4.578-3.305-5.98-5.129
	c-0.809-1.055-3.529-5.047-0.113-4.5C386.67,293.205,388.588,295.018,389.909,297.381z"/>
<polygon fill="none" stroke="#0F0F0F" stroke-width="2" stroke-miterlimit="10" points="429.43,221.691 418.877,223.688 
	421.03,233.443 431.366,231.734 "/>
<polygon fill="none" stroke="#0F0F0F" stroke-width="2.2" stroke-miterlimit="10" points="451.289,216.98 436.799,220.025 
	438.826,230.396 453.271,228.041 "/>
<path fill="none" stroke="#0F0F0F" stroke-width="2" stroke-miterlimit="10" d="M429.928,224.275c0,0,1.512-1.865,3.195-2.225
	c2.699-0.57,4.092,0.488,4.092,0.488"/>
<g>
	<path fill="#A36D48" d="M432.349,224.552c0.706,1.423,1.232,2.911,1.592,4.47c0.18,0.789,0.312,1.57,0.267,2.487
		c-0.101,0.908-0.451,1.726-0.848,2.452c-0.437,0.729-0.882,1.354-1.432,2.004c-0.553,0.579-1.077,1.125-1.17,1.574
		c-0.049,0.209,0.028,0.441,0.212,0.669c0.206,0.242,0.504,0.472,0.812,0.677c0.623,0.418,1.303,0.795,2.049,1.043
		c-0.805,0.057-1.598-0.158-2.364-0.437c-0.381-0.156-0.756-0.337-1.125-0.622c-0.384-0.301-0.688-0.833-0.667-1.412
		c0.021-0.572,0.27-1.016,0.509-1.376c0.244-0.364,0.515-0.677,0.737-0.967c0.427-0.562,0.884-1.218,1.229-1.841
		c0.37-0.625,0.638-1.273,0.751-1.914c0.101-0.639,0.021-1.418-0.029-2.17L432.349,224.552z"/>
</g>
<g>
	<path fill="#A36D48" d="M438.826,237.784c0.19,0.35,0.062,0.825-0.146,1.122c-0.218,0.32-0.527,0.549-0.854,0.676
		c-0.326,0.132-0.67,0.164-1.004,0.122c-0.333-0.043-0.665-0.163-0.972-0.44c0.281-0.302,0.533-0.479,0.776-0.629
		c0.242-0.146,0.467-0.264,0.688-0.347c0.219-0.088,0.431-0.142,0.657-0.203C438.211,238.003,438.442,237.99,438.826,237.784z"/>
</g>
</svg>
