<?xml version="1.0" encoding="utf-8"?>
<!-- Generator: Adobe Illustrator 15.1.0, SVG Export Plug-In  -->
<!DOCTYPE svg PUBLIC "-//W3C//DTD SVG 1.1//EN" "http://www.w3.org/Graphics/SVG/1.1/DTD/svg11.dtd" [
	<!ENTITY ns_flows "http://ns.adobe.com/Flows/1.0/">
]>
<svg version="1.1"
	 xmlns="http://www.w3.org/2000/svg" xmlns:xlink="http://www.w3.org/1999/xlink" xmlns:a="http://ns.adobe.com/AdobeSVGViewerExtensions/3.0/"
	 x="0px" y="0px" width="560px" height="72px" viewBox="6.859 7.9 560 72"
	 overflow="visible" enable-background="new 6.859 7.9 560 72" xml:space="preserve">
<defs>
</defs>
<rect display="none" fill="#1EBFF0" width="582.944" height="85.515"/>
<path fill="#3F4142" d="M301.769,76.794c-6.156,1.997-12.812,2.995-19.965,2.995c-24.956,0-37.435-12.395-37.435-37.185
	c0-23.459,12.479-35.188,37.435-35.188c7.153,0,13.809,0.998,19.965,2.995v7.986c-6.156-2.329-12.478-3.494-18.967-3.494
	c-19.466,0-29.199,9.234-29.199,27.702c0,19.799,9.733,29.698,29.199,29.698c6.489,0,12.811-1.164,18.967-3.494V76.794z"/>
<path fill="#3F4142" d="M103.153,79.29V7.915h28.95c22.294,0,33.442,11.248,33.442,33.741c0,25.089-11.148,37.634-33.442,37.634
	H103.153z M130.106,71.804c17.471,0,26.205-10.049,26.205-30.148c0-17.502-8.734-26.254-26.205-26.254h-17.719v56.402H130.106z"/>
<path fill="#3F4142" d="M169.394,43.702c0-24.191,11.946-36.287,35.837-36.287c23.526,0,35.289,12.096,35.289,36.287
	c0,24.059-11.763,36.087-35.289,36.087C181.34,79.789,169.394,67.761,169.394,43.702z M205.231,72.302
	c17.037,0,25.557-9.633,25.557-28.899c0-19-8.52-28.5-25.557-28.5c-17.402,0-26.104,9.5-26.104,28.5
	C179.127,62.669,187.829,72.302,205.231,72.302z"/>
<path fill="#FFFFFF" d="M303.622,79.29l30.297-71.375h14.226L379.09,79.29h-14.225l-8.984-19.467H333.02l4.543-11.479h14.824
	l-11.68-26.803l-23.51,57.75H303.622z"/>
<path fill="#FFFFFF" d="M382.69,76.296v-11.98c7.154,2.663,15.24,3.994,24.258,3.994c10.948,0,16.421-3.66,16.421-10.981
	c0-5.323-3.361-7.985-10.082-7.985h-12.179c-14.607,0-21.912-6.655-21.912-19.966c0-14.641,10.398-21.961,31.196-21.961
	c7.986,0,15.555,1.165,22.711,3.494v11.979c-7.156-2.662-14.725-3.993-22.711-3.993c-11.979,0-17.969,3.494-17.969,10.481
	c0,5.324,2.896,7.986,8.685,7.986h12.179c15.539,0,23.311,6.655,23.311,19.965c0,14.974-9.883,22.461-29.649,22.461
	C397.93,79.789,389.844,78.625,382.69,76.296z"/>
<path fill="#FFFFFF" d="M434.706,79.29l30.297-71.375h14.226l30.945,71.375h-14.225l-8.984-19.467h-22.86l4.542-11.479h14.824
	l-11.68-26.803l-23.509,57.75H434.706z"/>
<path fill="#FFFFFF" d="M512.776,79.29V7.915h33.441c13.576,0,20.364,6.04,20.364,18.118c0,14.209-9.8,22.843-29.398,25.905
	l-1.896-11.779c11.646-2.163,17.469-6.738,17.469-13.726c0-4.592-2.463-6.888-7.387-6.888h-19.366V79.29H512.776z"/>
<path fill="#FFFFFF" d="M50.012,71.238c0,4.233-3.43,7.665-7.663,7.665c-4.23,0-7.663-3.432-7.663-7.665
	c0-4.23,3.433-7.663,7.663-7.663C46.583,63.575,50.012,67.008,50.012,71.238z"/>
<circle fill="#FFFFFF" cx="14.521" cy="43.694" r="7.663"/>
<circle fill="#FFFFFF" cx="42.349" cy="43.694" r="7.663"/>
<circle fill="#FFFFFF" cx="70.321" cy="43.694" r="7.663"/>
<circle fill="#FFFFFF" cx="42.349" cy="15.563" r="7.663"/>
<path fill="#D3D3D3" d="M22.184,71.238c0,4.233-3.43,7.665-7.662,7.665c-4.231,0-7.663-3.432-7.663-7.665
	c0-4.23,3.432-7.663,7.663-7.663C18.754,63.575,22.184,67.008,22.184,71.238z"/>
<path fill="#D3D3D3" d="M77.984,71.238c0,4.233-3.43,7.665-7.663,7.665c-4.23,0-7.662-3.432-7.662-7.665
	c0-4.23,3.432-7.663,7.662-7.663C74.554,63.575,77.984,67.008,77.984,71.238z"/>
<circle fill="#D3D3D3" cx="14.521" cy="15.563" r="7.663"/>
<circle fill="#D3D3D3" cx="70.321" cy="15.563" r="7.663"/>
</svg>
