<?xml version="1.0" encoding="utf-8"?>
<!-- Generator: Adobe Illustrator 15.1.0, SVG Export Plug-In  -->
<!DOCTYPE svg PUBLIC "-//W3C//DTD SVG 1.1//EN" "http://www.w3.org/Graphics/SVG/1.1/DTD/svg11.dtd" [
	<!ENTITY ns_flows "http://ns.adobe.com/Flows/1.0/">
]>
<svg version="1.1"
	 xmlns="http://www.w3.org/2000/svg" xmlns:xlink="http://www.w3.org/1999/xlink" xmlns:a="http://ns.adobe.com/AdobeSVGViewerExtensions/3.0/"
	 x="0px" y="0px" width="560px" height="72px" viewBox="6.858 7.9 560 72"
	 overflow="visible" enable-background="new 6.858 7.9 560 72" xml:space="preserve">
<defs>
</defs>
<rect display="none" fill="#235AA9" width="582.943" height="85.516"/>
<path fill="#9FA5A7" d="M301.768,76.795c-6.156,1.996-12.811,2.994-19.965,2.994c-24.955,0-37.434-12.395-37.434-37.185
	c0-23.459,12.479-35.188,37.434-35.188c7.154,0,13.809,0.998,19.965,2.994v7.986c-6.156-2.328-12.477-3.494-18.967-3.494
	c-19.465,0-29.199,9.234-29.199,27.702c0,19.8,9.734,29.698,29.199,29.698c6.49,0,12.811-1.164,18.967-3.494V76.795z"/>
<path fill="#9FA5A7" d="M103.152,79.291V7.915h28.95c22.294,0,33.443,11.247,33.443,33.741c0,25.09-11.148,37.635-33.443,37.635
	H103.152z M130.105,71.805c17.471,0,26.205-10.049,26.205-30.148c0-17.502-8.734-26.254-26.205-26.254h-17.719v56.402H130.105z"/>
<path fill="#9FA5A7" d="M169.393,43.703c0-24.191,11.947-36.287,35.838-36.287c23.525,0,35.289,12.096,35.289,36.287
	c0,24.059-11.764,36.086-35.289,36.086C181.34,79.789,169.393,67.762,169.393,43.703z M205.23,72.303
	c17.037,0,25.557-9.633,25.557-28.9c0-18.999-8.52-28.5-25.557-28.5c-17.402,0-26.104,9.501-26.104,28.5
	C179.127,62.67,187.828,72.303,205.23,72.303z"/>
<path fill="#FFFFFF" d="M303.621,79.291l30.297-71.376h14.225l30.947,71.376h-14.225l-8.984-19.467H333.02l4.543-11.48h14.824
	l-11.68-26.803l-23.51,57.75H303.621z"/>
<path fill="#FFFFFF" d="M382.689,76.297v-11.98c7.154,2.662,15.24,3.994,24.258,3.994c10.947,0,16.42-3.66,16.42-10.982
	c0-5.322-3.361-7.984-10.082-7.984h-12.178c-14.607,0-21.912-6.656-21.912-19.967c0-14.641,10.398-21.961,31.195-21.961
	c7.986,0,15.555,1.165,22.711,3.494v11.979c-7.156-2.662-14.725-3.992-22.711-3.992c-11.979,0-17.969,3.493-17.969,10.48
	c0,5.324,2.896,7.986,8.686,7.986h12.178c15.539,0,23.311,6.656,23.311,19.965c0,14.975-9.883,22.461-29.648,22.461
	C397.93,79.789,389.844,78.625,382.689,76.297z"/>
<path fill="#FFFFFF" d="M434.705,79.291l30.297-71.376h14.225l30.945,71.376h-14.225l-8.984-19.467h-22.859l4.541-11.48h14.824
	l-11.68-26.803l-23.508,57.75H434.705z"/>
<path fill="#FFFFFF" d="M512.775,79.291V7.915h33.441c13.576,0,20.363,6.04,20.363,18.118c0,14.209-9.799,22.844-29.398,25.904
	l-1.896-11.779c11.646-2.162,17.469-6.738,17.469-13.726c0-4.592-2.463-6.888-7.387-6.888h-19.365v59.746H512.775z"/>
<path fill="#FFFFFF" d="M50.012,71.238c0,4.234-3.43,7.666-7.663,7.666c-4.23,0-7.663-3.432-7.663-7.666
	c0-4.23,3.433-7.662,7.663-7.662C46.582,63.576,50.012,67.008,50.012,71.238z"/>
<circle fill="#FFFFFF" cx="14.521" cy="43.695" r="7.663"/>
<circle fill="#FFFFFF" cx="42.349" cy="43.695" r="7.663"/>
<circle fill="#FFFFFF" cx="70.321" cy="43.695" r="7.663"/>
<circle fill="#FFFFFF" cx="42.349" cy="15.563" r="7.663"/>
<path fill="#9FA5A7" d="M22.184,71.238c0,4.234-3.43,7.666-7.662,7.666c-4.231,0-7.663-3.432-7.663-7.666
	c0-4.23,3.432-7.662,7.663-7.662C18.754,63.576,22.184,67.008,22.184,71.238z"/>
<path fill="#9FA5A7" d="M77.983,71.238c0,4.234-3.43,7.666-7.663,7.666c-4.23,0-7.662-3.432-7.662-7.666
	c0-4.23,3.432-7.662,7.662-7.662C74.554,63.576,77.983,67.008,77.983,71.238z"/>
<circle fill="#9FA5A7" cx="14.521" cy="15.563" r="7.663"/>
<circle fill="#9FA5A7" cx="70.321" cy="15.563" r="7.663"/>
</svg>
