<?xml version="1.0" encoding="utf-8"?>
<!-- Generator: Adobe Illustrator 15.1.0, SVG Export Plug-In . SVG Version: 6.00 Build 0)  -->
<!DOCTYPE svg PUBLIC "-//W3C//DTD SVG 1.1//EN" "http://www.w3.org/Graphics/SVG/1.1/DTD/svg11.dtd">
<svg version="1.1" id="Layer_1" xmlns="http://www.w3.org/2000/svg" xmlns:xlink="http://www.w3.org/1999/xlink" x="0px" y="0px"
	 width="85px" height="85px" viewBox="0.357 1.5 85 85" enable-background="new 0.357 1.5 85 85" xml:space="preserve">
<g>
	<path fill="#FFFFFF" d="M49.498,70.927c-0.334,0.335-0.762,0.503-1.283,0.503H37.5c-0.521,0-0.949-0.168-1.284-0.503
		c-0.334-0.335-0.502-0.763-0.502-1.283V58.93c0-0.521,0.167-0.949,0.502-1.284c0.335-0.335,0.763-0.502,1.284-0.502h10.714
		c0.521,0,0.949,0.167,1.283,0.502C49.833,57.98,50,58.408,50,58.93v10.714C50,70.164,49.833,70.592,49.498,70.927z M63.588,36.664
		c-0.465,1.376-0.985,2.502-1.562,3.376c-0.576,0.875-1.404,1.767-2.482,2.679c-1.08,0.912-1.936,1.562-2.567,1.953
		c-0.633,0.391-1.544,0.92-2.734,1.59c-1.228,0.707-2.241,1.627-3.042,2.762C50.4,50.159,50,51.08,50,51.786
		c0,0.521-0.167,0.948-0.502,1.284c-0.334,0.334-0.762,0.502-1.283,0.502H37.5c-0.521,0-0.949-0.168-1.284-0.502
		c-0.334-0.336-0.502-0.764-0.502-1.284v-2.009c0-2.493,0.977-4.827,2.93-7.003s4.102-3.785,6.445-4.827
		c1.786-0.818,3.05-1.655,3.794-2.511C49.628,34.58,50,33.445,50,32.031c0-1.227-0.698-2.324-2.093-3.292s-2.985-1.45-4.771-1.45
		c-1.935,0-3.534,0.445-4.799,1.339c-1.228,0.893-2.827,2.604-4.799,5.134c-0.335,0.446-0.8,0.67-1.395,0.67
		c-0.447,0-0.8-0.111-1.061-0.335l-7.366-5.581c-0.855-0.669-1.004-1.45-0.446-2.344c4.762-7.924,11.663-11.886,20.703-11.886
		c3.237,0,6.399,0.763,9.487,2.288s5.664,3.684,7.729,6.473c2.065,2.791,3.097,5.822,3.097,9.097
		C64.285,33.78,64.053,35.287,63.588,36.664z M79.967,21.346C76.135,14.779,70.936,9.58,64.369,5.748S50.633,0,42.857,0
		c-7.775,0-14.946,1.916-21.512,5.748C14.779,9.58,9.58,14.779,5.748,21.346C1.916,27.912,0,35.082,0,42.857
		S1.916,57.804,5.748,64.37c3.832,6.565,9.031,11.765,15.597,15.597c6.566,3.832,13.737,5.748,21.512,5.748
		c7.776,0,14.946-1.916,21.512-5.748s11.766-9.031,15.598-15.597c3.832-6.566,5.748-13.737,5.748-21.513
		S83.799,27.912,79.967,21.346z"/>
</g>
</svg>
