<?xml version="1.0" encoding="utf-8"?>
<!-- Generator: Adobe Illustrator 15.1.0, SVG Export Plug-In . SVG Version: 6.00 Build 0)  -->
<!DOCTYPE svg PUBLIC "-//W3C//DTD SVG 1.1//EN" "http://www.w3.org/Graphics/SVG/1.1/DTD/svg11.dtd">
<svg version="1.1" id="Layer_1" xmlns="http://www.w3.org/2000/svg" xmlns:xlink="http://www.w3.org/1999/xlink" x="0px" y="0px"
	 width="85px" height="85px" viewBox="0.357 -0.393 85 85" enable-background="new 0.357 -0.393 85 85" xml:space="preserve">
<g>
	<path fill="#FFFFFF" d="M83.447,50.467c-0.351-0.351-0.765-0.526-1.245-0.526H71.578c-0.812,0-1.365,0.424-1.661,1.273
		c-1.55,3.688-2.526,5.848-2.933,6.474c-2.582,4.207-6.014,7.509-10.292,9.906c-4.28,2.398-8.892,3.598-13.835,3.598
		c-3.578,0-7.028-0.664-10.348-1.993c-3.32-1.327-6.29-3.209-8.909-5.644l7.581-7.582c0.701-0.7,1.052-1.531,1.052-2.49
		s-0.351-1.789-1.052-2.49c-0.701-0.701-1.531-1.051-2.49-1.051H3.899c-0.959,0-1.789,0.351-2.49,1.051
		c-0.701,0.701-1.051,1.531-1.051,2.49v24.792c0,0.959,0.351,1.79,1.051,2.49c0.701,0.701,1.531,1.052,2.49,1.052
		s1.79-0.351,2.49-1.052l7.139-7.139c3.947,3.764,8.439,6.659,13.475,8.688c5.036,2.029,10.247,3.044,15.633,3.044
		c10.108,0,18.926-3.072,26.452-9.214c7.525-6.143,12.47-14.158,14.83-24.045c0.037-0.073,0.056-0.202,0.056-0.387
		C83.974,51.232,83.798,50.817,83.447,50.467z M84.306,4.952C83.604,4.25,82.774,3.9,81.815,3.9s-1.79,0.351-2.49,1.052
		l-7.194,7.138c-3.947-3.727-8.466-6.613-13.558-8.661c-5.091-2.047-10.33-3.072-15.716-3.072c-10.145,0-19,3.072-26.562,9.214
		C8.732,15.714,3.752,23.729,1.354,33.617v0.387c0,0.479,0.175,0.894,0.526,1.245s0.766,0.526,1.245,0.526h11.013
		c0.812,0,1.365-0.424,1.66-1.272c1.549-3.69,2.527-5.847,2.933-6.475c2.582-4.206,6.013-7.507,10.292-9.905
		c4.28-2.399,8.891-3.598,13.834-3.598c7.416,0,13.853,2.526,19.313,7.582l-7.637,7.637c-0.701,0.7-1.051,1.53-1.051,2.49
		s0.35,1.789,1.051,2.49c0.7,0.701,1.531,1.052,2.49,1.052h24.792c0.959,0,1.789-0.351,2.49-1.052s1.052-1.53,1.052-2.49V7.441
		C85.357,6.482,85.007,5.652,84.306,4.952z"/>
</g>
</svg>
