<?xml version="1.0" encoding="utf-8"?>
<!-- Generator: Adobe Illustrator 15.1.0, SVG Export Plug-In . SVG Version: 6.00 Build 0)  -->
<!DOCTYPE svg PUBLIC "-//W3C//DTD SVG 1.1//EN" "http://www.w3.org/Graphics/SVG/1.1/DTD/svg11.dtd">
<svg version="1.1" id="Layer_1" xmlns="http://www.w3.org/2000/svg" xmlns:xlink="http://www.w3.org/1999/xlink" x="0px" y="0px"
	 width="92.857px" height="79.353px" viewBox="0 3.181 92.857 79.353" enable-background="new 0 3.181 92.857 79.353"
	 xml:space="preserve">
<g>
	<path fill="#FFFFFF" d="M42.857,73.215V12.5c0-0.967-0.353-1.804-1.06-2.511c-0.707-0.707-1.544-1.06-2.511-1.06
		s-1.804,0.354-2.511,1.06L18.192,28.571H3.571c-0.967,0-1.804,0.354-2.511,1.061C0.354,30.338,0,31.176,0,32.143v21.428
		c0,0.968,0.354,1.805,1.06,2.511c0.707,0.707,1.544,1.061,2.511,1.061h14.621l18.583,18.583c0.707,0.706,1.544,1.06,2.511,1.06
		s1.804-0.354,2.511-1.06C42.504,75.019,42.857,74.182,42.857,73.215z M64.285,42.857c0-2.828-0.79-5.46-2.371-7.896
		s-3.674-4.176-6.277-5.218c-0.373-0.186-0.838-0.279-1.396-0.279c-0.968,0-1.805,0.344-2.511,1.032
		c-0.707,0.688-1.061,1.535-1.061,2.539c0,0.781,0.223,1.442,0.67,1.981c0.445,0.54,0.985,1.005,1.617,1.396
		c0.633,0.391,1.266,0.818,1.898,1.283c0.632,0.465,1.172,1.125,1.617,1.981c0.447,0.856,0.67,1.916,0.67,3.181
		c0,1.265-0.223,2.325-0.67,3.181c-0.445,0.855-0.985,1.516-1.617,1.981c-0.633,0.465-1.266,0.893-1.898,1.284
		c-0.632,0.391-1.172,0.855-1.617,1.395c-0.447,0.539-0.67,1.2-0.67,1.981c0,1.005,0.354,1.851,1.061,2.539
		c0.706,0.688,1.543,1.032,2.511,1.032c0.558,0,1.022-0.093,1.396-0.279c2.604-1.004,4.696-2.734,6.277-5.189
		S64.285,45.685,64.285,42.857z M78.571,42.857c0-5.692-1.581-10.947-4.743-15.765c-3.162-4.818-7.348-8.324-12.556-10.519
		c-0.483-0.186-0.948-0.279-1.396-0.279c-1.004,0-1.859,0.353-2.566,1.06c-0.707,0.707-1.061,1.544-1.061,2.511
		c0,1.451,0.726,2.548,2.176,3.292c2.084,1.079,3.498,1.897,4.242,2.455c2.752,2.009,4.9,4.529,6.445,7.562
		c1.543,3.032,2.315,6.259,2.315,9.682c0,3.422-0.772,6.649-2.315,9.682c-1.545,3.032-3.693,5.553-6.445,7.562
		c-0.744,0.558-2.158,1.376-4.242,2.455c-1.45,0.744-2.176,1.842-2.176,3.292c0,0.968,0.354,1.805,1.061,2.512
		s1.543,1.061,2.511,1.061c0.483,0,0.968-0.094,1.451-0.279c5.208-2.195,9.394-5.701,12.556-10.52
		C76.99,53.804,78.571,48.549,78.571,42.857z M92.857,42.857c0-8.557-2.363-16.416-7.088-23.577
		C81.045,12.119,74.758,6.845,66.908,3.46c-0.483-0.186-0.967-0.279-1.451-0.279c-0.967,0-1.804,0.354-2.511,1.061
		c-0.706,0.707-1.06,1.544-1.06,2.511c0,1.339,0.725,2.437,2.176,3.292c0.26,0.148,0.679,0.344,1.256,0.586
		c0.576,0.242,0.995,0.437,1.256,0.586c1.711,0.93,3.236,1.878,4.575,2.846c4.576,3.385,8.147,7.608,10.714,12.667
		c2.567,5.06,3.852,10.435,3.852,16.127c0,5.692-1.284,11.067-3.852,16.127c-2.566,5.06-6.138,9.282-10.714,12.668
		c-1.339,0.967-2.864,1.916-4.575,2.846c-0.261,0.148-0.68,0.344-1.256,0.586c-0.577,0.242-0.996,0.438-1.256,0.586
		c-1.451,0.855-2.176,1.953-2.176,3.292c0,0.968,0.354,1.805,1.06,2.511c0.707,0.707,1.544,1.061,2.511,1.061
		c0.484,0,0.968-0.093,1.451-0.279c7.85-3.385,14.137-8.658,18.861-15.82C90.494,59.272,92.857,51.414,92.857,42.857z"/>
</g>
</svg>
